<?xml version="1.0" standalone="no"?><!DOCTYPE svg PUBLIC "-//W3C//DTD SVG 1.1//EN" "http://www.w3.org/Graphics/SVG/1.1/DTD/svg11.dtd"><svg t="1677240802013" class="icon" viewBox="0 0 1024 1024" version="1.1" xmlns="http://www.w3.org/2000/svg" p-id="1938" xmlns:xlink="http://www.w3.org/1999/xlink" width="48" height="48"><path d="M896 661.333333a42.666667 42.666667 0 0 1 42.368 37.674667L938.666667 704V896a85.333333 85.333333 0 0 1-78.933334 85.12L853.333333 981.333333h-138.666666a42.666667 42.666667 0 0 1-4.992-85.034666L714.666667 896H853.333333v-192a42.666667 42.666667 0 0 1 42.666667-42.666667zM853.333333 42.666667a85.333333 85.333333 0 0 1 85.12 78.933333L938.666667 128v213.333333a42.666667 42.666667 0 0 1-85.034667 4.992L853.333333 341.333333V128H170.666667v768h213.333333a42.666667 42.666667 0 0 1 4.992 85.034667L384 981.333333H170.666667a85.333333 85.333333 0 0 1-85.12-78.933333L85.333333 896V128a85.333333 85.333333 0 0 1 78.933334-85.12L170.666667 42.666667h682.666666z m69.546667 414.848a42.666667 42.666667 0 0 1 9.386667 55.637333l-3.114667 4.352-362.666667 448a42.666667 42.666667 0 0 1-69.418666-49.322667l3.114666-4.352 362.666667-448a42.666667 42.666667 0 0 1 59.989333-6.314666zM536.32 469.333333a42.666667 42.666667 0 0 1 4.992 85.034667l-4.992 0.298667H341.333333a42.666667 42.666667 0 0 1-4.992-85.034667L341.333333 469.333333h195.029334zM682.666667 298.666667a42.666667 42.666667 0 0 1 4.992 85.034666L682.666667 384H341.333333a42.666667 42.666667 0 0 1-4.992-85.034667L341.333333 298.666667h341.333334z" fill="#f4ea2a" p-id="1939"></path></svg>